# xmcd
#
# Track frame offsets:
# 150
# 13919
# 32736
# 48530
# 66348
# 83465
# 103983
# 115861
# 132167
# 150256
# 166832
# 185920
# 200850
# 219695
#
# Disc length: 3151 seconds
#
# Revision: 0
# Processed by: cddbd v1.4PL0 Copyright (c) Steve Scherf et al.
# Submitted via: Axialis_AX_CDPlayer 2.6
#
DISCID=c80c4d0e
DTITLE=Bruno and Marrone - Sonhos, Planos, Fantasias
DYEAR=1900
DGENRE=
TTITLE0=Credo em Cruz Ave-Maria
TTITLE1=Agora Vai
TTITLE2=Anjo De Amor
TTITLE3=Eu Queria
TTITLE4=Então Pode Ir
TTITLE5=Se Tiver Coragem Joga Fora
TTITLE6=Tá Liberado
TTITLE7=Menina
TTITLE8=Raio de Luar
TTITLE9=Cama Vazia
TTITLE10=Remar Contra A Maré
TTITLE11=Telefone Mudo
TTITLE12=Noite Sem Sono
TTITLE13=Metade da Metade
EXTD=
EXTT0=
EXTT1=
EXTT2=
EXTT3=
EXTT4=
EXTT5=
EXTT6=
EXTT7=
EXTT8=
EXTT9=
EXTT10=
EXTT11=
EXTT12=
EXTT13=
PLAYORDER=
